<svg xmlns="http://www.w3.org/2000/svg" width="1100" height="476" viewBox="0 0 1100 476">
<style>text{font-family:Arial,sans-serif;font-size:13px}.title{font-size:20px;font-weight:700}.axis{stroke:#777;stroke-width:1}.grid{stroke:#ddd;stroke-width:1}.label{font-weight:600}</style>
<text class="title" x="550.0" y="32" text-anchor="middle">Net AI-Friendly Framing per 1,000 Words</text>
<line class="axis" x1="635.0" y1="50" x2="635.0" y2="431"/>
<text class="label" x="218" y="92" text-anchor="end">China</text>
<rect x="635.0" y="74" width="405.0" height="15" fill="#1f77b4"/>
<text x="1045.0" y="86" text-anchor="start">19.43</text>
<text class="label" x="218" y="134" text-anchor="end">United Kingdom</text>
<rect x="635.0" y="116" width="265.6" height="15" fill="#1f77b4"/>
<text x="905.6" y="128" text-anchor="start">12.74</text>
<text class="label" x="218" y="176" text-anchor="end">Germany</text>
<rect x="635.0" y="158" width="205.9" height="15" fill="#1f77b4"/>
<text x="845.9" y="170" text-anchor="start">9.88</text>
<text class="label" x="218" y="218" text-anchor="end">France</text>
<rect x="635.0" y="200" width="197.0" height="15" fill="#1f77b4"/>
<text x="837.0" y="212" text-anchor="start">9.45</text>
<text class="label" x="218" y="260" text-anchor="end">Italy</text>
<rect x="635.0" y="242" width="157.2" height="15" fill="#1f77b4"/>
<text x="797.2" y="254" text-anchor="start">7.54</text>
<text class="label" x="218" y="302" text-anchor="end">United States</text>
<rect x="635.0" y="284" width="134.4" height="15" fill="#1f77b4"/>
<text x="774.4" y="296" text-anchor="start">6.45</text>
<text class="label" x="218" y="344" text-anchor="end">Japan</text>
<rect x="635.0" y="326" width="24.2" height="15" fill="#1f77b4"/>
<text x="664.2" y="338" text-anchor="start">1.16</text>
<text class="label" x="218" y="386" text-anchor="end">Canada</text>
<rect x="545.2" y="368" width="89.8" height="15" fill="#1f77b4"/>
<text x="540.2" y="380" text-anchor="end">-4.31</text>
<rect x="230" y="439" width="14" height="14" fill="#1f77b4"/>
<text x="250" y="451">Net AI-friendly framing</text>
</svg>